<svg width="512" height="512" viewBox="0 0 512 512" fill="none" xmlns="http://www.w3.org/2000/svg">
<path d="M93.8577 340H50L106.966 171H161.293L218.258 340H174.401L134.748 213.58H133.429L93.8577 340ZM88.0045 273.489H179.677V304.517H88.0045V273.489Z" fill="white"/>
<path d="M188.936 204.173V171H331.638V204.173H280.443V340H240.213V204.173H188.936Z" fill="white"/>
<path d="M330.674 340V171H400.418C413.059 171 423.968 173.476 433.146 178.427C442.379 183.323 449.497 190.172 454.498 198.974C459.499 207.721 462 217.899 462 229.506C462 241.169 459.444 251.374 454.333 260.121C449.277 268.813 442.05 275.552 432.652 280.338C423.254 285.125 412.097 287.518 399.181 287.518H356.148V255.335H391.597C397.752 255.335 402.891 254.262 407.013 252.117C411.19 249.971 414.35 246.973 416.494 243.122C418.637 239.216 419.709 234.678 419.709 229.506C419.709 224.28 418.637 219.769 416.494 215.973C414.35 212.122 411.19 209.152 407.013 207.061C402.836 204.971 397.697 203.925 391.597 203.925H371.482V340H330.674Z" fill="white"/>
</svg>
